<?xml version="1.0" encoding="utf-8"?>
<!-- Generator: Adobe Illustrator 18.1.1, SVG Export Plug-In . SVG Version: 6.00 Build 0)  -->
<svg version="1.1" xmlns="http://www.w3.org/2000/svg" xmlns:xlink="http://www.w3.org/1999/xlink" x="0px" y="0px"
	 viewBox="0 0 500 500" enable-background="new 0 0 500 500" xml:space="preserve">
<path class="arrow-straight" d="M389.1,296.4H35.6c-13.3,0-24-10.7-24-24v-42c0-13.3,10.7-24,24-24h353.5c13.3,0,24,10.7,24,24v42
	C413.1,285.6,402.4,296.4,389.1,296.4z"/>
<path d="M480.1,267.4L269.2,478.3c-9.4,9.4-24.6,9.4-33.9,0l-29.7-29.7c-9.4-9.4-9.4-24.6,0-33.9l210.9-210.9
	c9.4-9.4,24.6-9.4,33.9,0l29.7,29.7C489.5,242.8,489.5,258,480.1,267.4z"/>
<path d="M269.2,21.8l210.9,210.9c9.4,9.4,9.4,24.6,0,33.9l-29.7,29.7c-9.4,9.4-24.6,9.4-33.9,0L205.5,85.5c-9.4-9.4-9.4-24.6,0-33.9
	l29.7-29.7C244.6,12.5,259.8,12.5,269.2,21.8z"/>
</svg>
