<svg viewBox="0 0 1000 1000">
<path  d="M496.9,988.3c-65.9,0-129.8-12.9-190-38.4c-58.1-24.6-110.3-59.8-155.1-104.6c-44.8-44.8-80-97-104.6-155.1
	C21.7,629.9,8.8,566,8.8,500.1s12.9-129.8,38.4-190C71.7,252,106.9,199.8,151.7,155c44.8-44.8,97-80,155.1-104.6
	C367.1,24.9,431,12,496.9,12s129.8,12.9,190,38.4C745,75,797.2,110.2,842,155c44.8,44.8,80,97,104.6,155.1
	c25.5,60.2,38.4,124.1,38.4,190s-12.9,129.8-38.4,190C922,748.3,886.8,800.5,842,845.3c-44.8,44.8-97,80-155.1,104.6
	C626.7,975.3,562.8,988.3,496.9,988.3z M496.9,112c-103.7,0-201.1,40.4-274.4,113.7C149.1,299,108.8,396.5,108.8,500.1
	c0,103.7,40.4,201.1,113.7,274.4s170.8,113.7,274.4,113.7S698,847.9,771.3,774.6S885,603.8,885,500.1
	c0-103.7-40.4-201.1-113.7-274.4C698,152.4,600.5,112,496.9,112z"/>
<path d="M500,760.7L500,760.7c-27.6,0-50-22.4-50-50V289.3c0-27.6,22.4-50,50-50h0c27.6,0,50,22.4,50,50v421.5
	C550,738.3,527.6,760.7,500,760.7z"/>
<path d="M760.7,500L760.7,500c0,27.6-22.4,50-50,50H289.3c-27.6,0-50-22.4-50-50v0c0-27.6,22.4-50,50-50h421.5
	C738.3,450,760.7,472.4,760.7,500z"/>
</svg>
