<?xml version="1.0" encoding="utf-8"?>
<!-- Generator: Adobe Illustrator 24.2.1, SVG Export Plug-In . SVG Version: 6.00 Build 0)  -->
<svg version="1.1" id="Layer_1" xmlns="http://www.w3.org/2000/svg" xmlns:xlink="http://www.w3.org/1999/xlink" x="0px" y="0px"
	 viewBox="0 0 1000 1000" style="enable-background:new 0 0 1000 1000;" xml:space="preserve">
<style type="text/css">
	.st-arrow{fill:#FFFFFF;}
</style>
<path class="st-arrow" d="M707,424L541.3,258.4c-1.6-2.3-3.4-4.5-5.5-6.5l0,0C526,242,513,237.1,500,237.3c-13-0.1-26,4.7-35.9,14.6l0,0
	c-2,2-3.9,4.2-5.5,6.5L293,424c-19.5,19.5-19.5,51.2,0,70.7l0,0c19.5,19.5,51.2,19.5,70.7,0l86.8-86.8v304.8c0,27.6,22.4,50,50,50h0
	c27.6,0,50-22.4,50-50V409l85.7,85.7c19.5,19.5,51.2,19.5,70.7,0l0,0C726.5,475.2,726.5,443.5,707,424z"/>
</svg>
